<?xml version="1.0" standalone="no"?>
<!DOCTYPE svg PUBLIC "-//W3C//DTD SVG 20010904//EN"
 "http://www.w3.org/TR/2001/REC-SVG-20010904/DTD/svg10.dtd">
<svg version="1.0" xmlns="http://www.w3.org/2000/svg"
 width="300.000000pt" height="300.000000pt" viewBox="0 0 300.000000 300.000000"
 preserveAspectRatio="xMidYMid meet">

<g transform="translate(0.000000,300.000000) scale(0.100000,-0.100000)"
fill="#000000" stroke="none">
<path d="M1506 2539 c-10 -51 -7 -209 4 -209 6 0 10 13 10 28 0 16 3 70 6 120
5 61 3 92 -3 92 -6 0 -13 -14 -17 -31z"/>
<path d="M1766 2532 c-8 -13 -34 -94 -40 -122 -3 -14 -22 -82 -44 -152 -21
-71 -38 -128 -36 -128 12 0 58 133 79 225 1 6 5 17 8 25 10 23 45 160 41 160
-1 0 -5 -4 -8 -8z"/>
<path d="M1263 2505 c12 -66 40 -155 49 -155 6 0 8 6 5 14 -3 7 -13 45 -22 82
-18 71 -42 116 -32 59z"/>
<path d="M1020 2435 c0 -6 106 -174 187 -297 48 -73 69 -88 31 -22 -39 69
-207 324 -213 324 -3 0 -5 -2 -5 -5z"/>
<path d="M1928 2333 c-138 -209 -190 -294 -185 -299 3 -3 27 29 54 71 26 43
66 103 88 134 64 89 126 191 116 191 -5 0 -38 -44 -73 -97z"/>
<path d="M1314 2317 c3 -10 13 -43 22 -75 22 -80 24 -86 30 -80 8 9 -27 136
-43 155 -14 17 -14 17 -9 0z"/>
<path d="M842 2270 c5 -15 59 -63 250 -224 66 -56 104 -95 101 -103 -3 -8 -8
-12 -11 -9 -2 3 -16 -4 -30 -14 -26 -21 -47 -27 -38 -11 3 5 -1 12 -10 15 -25
10 -27 1 -4 -19 21 -19 20 -19 -21 -61 l-42 -43 -15 27 c-8 15 -14 38 -13 52
0 14 -2 20 -7 15 -14 -16 -52 -126 -47 -134 2 -5 -7 -13 -21 -20 -14 -6 -51
-29 -84 -50 -32 -22 -61 -37 -64 -34 -2 3 11 27 31 54 19 28 34 52 32 54 -6 5
-132 -58 -192 -97 -28 -18 -56 -33 -62 -34 -10 -2 -95 -54 -95 -58 0 -1 35 0
78 2 60 2 101 12 186 43 103 38 152 46 150 24 -1 -5 -69 -46 -152 -90 -138
-73 -195 -108 -149 -92 25 9 163 35 222 41 l50 6 -25 -21 c-20 -17 -21 -20 -5
-14 11 4 45 8 75 10 30 2 86 13 123 25 38 12 71 19 74 16 3 -3 15 -1 27 5 14
7 12 3 -6 -11 -16 -12 -28 -26 -28 -31 0 -10 122 -11 159 0 16 4 33 23 47 50
12 24 32 50 45 58 22 13 19 14 -36 9 l-60 -4 55 14 c121 31 368 28 492 -6 20
-6 63 -30 95 -54 32 -23 63 -41 69 -39 6 2 43 -10 82 -27 83 -35 100 -38 54
-9 -18 12 -31 24 -28 26 7 7 192 -17 253 -33 31 -8 57 -13 59 -12 1 2 -45 31
-104 64 -118 68 -136 86 -70 73 45 -10 270 -28 277 -23 5 4 -178 95 -201 99
-15 3 -16 1 -8 -15 17 -31 12 -31 -50 0 -49 25 -64 39 -84 78 -13 26 -36 62
-50 81 l-26 35 0 -32 c0 -18 -4 -32 -10 -32 -18 0 -11 -25 20 -74 17 -27 29
-53 28 -58 -6 -17 -68 42 -90 86 -11 22 -25 44 -30 47 -5 3 -8 8 -7 10 6 6
-33 129 -40 129 -4 0 -7 10 -8 21 -1 12 -6 26 -11 31 -12 12 -102 -42 -102
-62 0 -8 25 -46 55 -85 111 -144 107 -171 -7 -43 -40 45 -87 98 -105 117 -24
28 -34 33 -44 24 -6 -6 -18 -9 -26 -6 -11 5 -14 1 -10 -13 23 -77 20 -86 -26
-63 -41 20 -117 74 -117 82 0 5 5 5 10 2 12 -7 12 2 1 30 -7 16 -9 13 -16 -20
-5 -22 -7 -46 -6 -52 1 -7 -5 -13 -14 -13 -19 0 -20 27 0 46 8 9 15 23 15 32
0 13 -2 14 -9 3 -7 -11 -10 -11 -17 0 -4 7 -3 14 4 17 13 4 17 42 5 42 -5 0
-17 15 -29 33 -15 25 -20 48 -19 100 0 37 -2 67 -5 67 -3 0 -14 -30 -24 -67
-10 -38 -31 -95 -47 -128 -15 -33 -38 -97 -50 -142 -17 -66 -28 -90 -56 -117
-33 -32 -133 -94 -133 -82 0 3 22 25 48 50 97 91 95 133 -5 86 -90 -43 -95
-37 -17 20 38 27 79 63 91 79 22 28 22 29 3 24 -31 -8 -24 6 30 63 44 47 65
82 42 72 -13 -5 -76 -79 -110 -129 -31 -46 -117 -129 -133 -129 -15 0 -10 12
17 36 14 14 22 29 18 36 -4 7 -3 8 4 4 6 -4 19 6 29 21 10 15 20 30 23 33 3 3
19 22 34 43 36 47 24 64 -13 20 -15 -18 -31 -33 -35 -33 -8 0 -90 69 -216 183
-93 84 -144 123 -138 107z m644 -313 c3 -13 4 -41 2 -63 l-3 -39 -18 54 c-9
29 -14 57 -11 62 10 16 24 9 30 -14z"/>
<path d="M2100 2204 c-41 -36 -106 -95 -145 -130 -38 -35 -79 -71 -90 -80 -11
-8 -15 -14 -8 -12 17 4 123 82 118 86 -2 2 22 25 53 51 86 72 168 150 157 150
-5 0 -44 -30 -85 -65z"/>
<path d="M1385 2109 c-4 -6 -5 -12 -2 -15 2 -3 7 2 10 11 7 17 1 20 -8 4z"/>
<path d="M1280 2065 c-8 -9 -8 -15 -2 -15 12 0 26 19 19 26 -2 2 -10 -2 -17
-11z"/>
<path d="M690 2065 c0 -6 135 -70 198 -95 44 -17 53 -5 11 13 -19 8 -69 31
-112 51 -76 35 -97 42 -97 31z"/>
<path d="M2220 2019 c-111 -50 -146 -69 -123 -69 19 0 243 102 243 111 0 12
10 15 -120 -42z"/>
<path d="M1550 1558 l0 -52 29 39 c32 44 31 65 -5 65 -22 0 -24 -4 -24 -52z"/>
<path d="M1831 1577 c23 -18 40 -53 33 -71 -5 -12 1 -16 24 -16 17 0 34 5 37
11 9 13 -30 56 -67 75 -33 17 -49 18 -27 1z"/>
<path d="M1601 1531 c-11 -15 -25 -40 -30 -54 -8 -21 -7 -25 5 -20 8 3 21 -1
30 -8 10 -8 18 -9 22 -3 4 5 24 14 45 19 21 6 39 15 39 20 1 6 -15 19 -35 30
-20 11 -37 26 -37 33 0 21 -18 13 -39 -17z"/>
<path d="M2007 1464 c-12 -12 -8 -41 7 -53 8 -7 16 -8 19 -4 7 12 -17 66 -26
57z"/>
<path d="M1240 1380 c-16 -6 -6 -7 30 -3 30 3 57 7 59 9 8 7 -64 2 -89 -6z"/>
<path d="M1967 1379 c-15 -9 -47 -59 -47 -74 0 -16 21 -1 32 23 14 29 50 41
72 23 20 -17 28 0 9 21 -18 20 -39 22 -66 7z"/>
<path d="M1164 1354 c-19 -15 -19 -15 1 -6 11 5 27 12 35 15 13 5 13 6 -1 6
-8 1 -24 -6 -35 -15z"/>
<path d="M1225 1356 c-22 -6 -47 -15 -55 -21 -8 -5 -19 -10 -24 -10 -5 0 -11
-7 -13 -15 -3 -9 -1 -11 4 -5 4 6 36 10 70 10 34 0 59 4 55 9 -3 5 2 6 12 3 9
-4 14 -3 11 2 -3 5 -1 12 5 16 16 10 12 25 -7 24 -10 -1 -36 -7 -58 -13z"/>
<path d="M1393 1348 c-18 -19 -53 -86 -53 -101 0 -2 7 -4 15 -4 8 0 17 13 20
27 8 34 48 73 71 68 30 -6 57 -54 57 -100 0 -43 0 -43 36 -42 63 2 291 38 291
46 0 11 -8 10 -150 -12 -69 -11 -130 -20 -136 -20 -6 0 -14 23 -16 51 -7 66
-34 103 -79 107 -26 2 -40 -3 -56 -20z"/>
<path d="M840 1341 c0 -40 31 -61 101 -68 37 -3 83 -3 103 1 32 6 36 10 36 36
0 42 -23 50 -139 50 -92 0 -101 -2 -101 -19z"/>
<path d="M1966 1328 c-41 -59 11 -145 55 -92 28 33 9 114 -27 114 -7 0 -20
-10 -28 -22z m49 -57 c-9 -29 -39 -23 -43 8 -2 13 2 27 10 32 19 12 41 -14 33
-40z"/>
<path d="M1980 1279 c0 -24 23 -21 28 4 2 10 -3 17 -12 17 -10 0 -16 -9 -16
-21z"/>
<path d="M1418 1310 c-36 -22 -47 -120 -17 -157 47 -55 115 59 78 130 -19 36
-34 42 -61 27z m41 -62 c19 -50 -28 -92 -50 -45 -8 18 -8 30 0 46 15 27 39 27
50 -1z"/>
<path d="M1424 1247 c-7 -20 -2 -47 11 -50 14 -3 19 43 6 56 -7 7 -12 6 -17
-6z"/>
</g>
</svg>
